<?xml version="1.0" standalone="no"?>
<!DOCTYPE svg PUBLIC "-//W3C//DTD SVG 20010904//EN"
 "http://www.w3.org/TR/2001/REC-SVG-20010904/DTD/svg10.dtd">
<svg version="1.0" xmlns="http://www.w3.org/2000/svg"
 width="204.000000pt" height="204.000000pt" viewBox="0 0 204.000000 204.000000"
 preserveAspectRatio="xMidYMid meet">
<metadata>
Created by potrace 1.14, written by Peter Selinger 2001-2017
</metadata>
<g transform="translate(0.000000,204.000000) scale(0.100000,-0.100000)"
fill="#000000" stroke="none">
<path d="M1011 1981 c-8 -5 -20 -7 -27 -4 -42 16 -304 -102 -288 -129 4 -6 3
-8 -3 -5 -17 10 -136 -130 -138 -163 -1 -3 -6 -14 -11 -25 -20 -37 -36 -119
-40 -200 -1 -44 -3 -83 -3 -87 -1 -4 -36 -6 -79 -5 l-79 2 0 -197 -1 -198 26
-1 c15 -1 51 -1 80 0 l52 2 1 -33 c0 -18 1 -237 1 -485 l0 -453 267 0 267 0
-1 484 0 484 140 0 140 0 0 -484 0 -484 267 0 268 0 0 683 0 682 -408 -1 -408
-1 3 36 c7 92 22 127 69 158 77 50 253 60 385 23 19 -6 35 -10 36 -10 1 0 2
81 2 179 l0 180 -47 15 c-87 28 -151 37 -327 42 -71 2 -136 0 -144 -5z"/>
</g>
</svg>
